<svg width="128" height="128" viewBox="0 0 128 128" fill="none" xmlns="http://www.w3.org/2000/svg">
  <rect width="128" height="128" rx="32" fill="#202020"/>
  <rect x="20" y="20" width="88" height="88" rx="26" fill="url(#panel)"/>
  <path d="M42 44.5C49.111 43.611 54.889 43.167 59.333 43.167C75.333 43.167 84.667 51.611 84.667 65.167C84.667 77.167 76.222 84.944 64.667 84.944C56.667 84.944 50 82.278 44.667 76.944" stroke="url(#gold)" stroke-width="4" stroke-linecap="round"/>
  <path d="M43.333 56C49.778 53.778 55.556 52.667 60.667 52.667C70.889 52.667 76 56.889 76 64.222C76 71.778 70.667 76.667 60 76.667C55.111 76.667 49.556 75.556 43.333 73.333" stroke="url(#gold)" stroke-width="4" stroke-linecap="round"/>
  <defs>
    <linearGradient id="gold" x1="40" y1="42" x2="86" y2="87" gradientUnits="userSpaceOnUse">
      <stop stop-color="#E1D1BE"/>
      <stop offset="1" stop-color="#B89E7C"/>
    </linearGradient>
    <linearGradient id="panel" x1="20" y1="20" x2="108" y2="108" gradientUnits="userSpaceOnUse">
      <stop stop-color="#2C2C2C"/>
      <stop offset="1" stop-color="#151515"/>
    </linearGradient>
  </defs>
</svg>
